<svg width="197" height="49" xmlns="http://www.w3.org/2000/svg" xmlns:xlink="http://www.w3.org/1999/xlink"><defs><path id="a" d="M0 0h64v49H0z"/></defs><g fill="none" fill-rule="evenodd"><g><mask id="b" fill="#fff"><use xlink:href="#a"/></mask><path d="M63.4 29.5h-3.6l-.8.1a5 5 0 0 1-.4 0 5 5 0 0 0-.6 0h-.1v-.2l.1-.3.1-.4.1-.4.2-1.1.1-.4.1-.5c0-.3 0-.6.2-1v-1.5l.1-.5V21c-.1-.3-.2-.6-.1-.8l-.1-1v-1l-.3-1a2 2 0 0 0-.3-1V16l-.1-.6v-.1l-.2-.5v-.4a66.6 66.6 0 0 0-1.3-3.2L55.2 9c-.7-1.1-1.3-2.2-2.2-3.1v-.1c-.1-.2-.3-.3-.4-.3l-.5.1-.2.1v.1L49 7.4l-.7.5-1.2.7c-1 .6-2 1.2-2.9 2-.6.4-1.3.5-1.9.7l-.8.1-.5.1a20.1 20.1 0 0 0-2.9.8 53.6 53.6 0 0 1-3.4 1l-.2.2c-1.3.4-2.5 1-3.8 1.5l-.2.1c-1.7.8-3.4 1.6-5 2.6l-.3.3-.1.2v.2l.1.1c0 .2.1.3.3.3h.1l.3-.1 1-.5 1-.5.7-.4 1.3-.7.5-.2a49.8 49.8 0 0 1 5.6-2.3l2.4-.8.6-.2h.2l.7-.2h.4v.2l-.4.2-.2.1L36 16l-1.4 1-.9.6-1.3.8a146.7 146.7 0 0 0-4.2 2.6c-.6.3-1.2.6-1.7 1.1-.4 0-.7.3-1 .5-.2 0-.3.2-.5.3a31.4 31.4 0 0 0-2.5 1.1l-.8.4-2.6 1c-1 .3-2.2.6-3.3.7l-.2.1-.3.1h-.5l-.7.2a3.1 3.1 0 0 1-.5 0h-.4l-.5.1h-.8a26.9 26.9 0 0 1-3-.2H8l-.2-.1-.7-.2H7l-.6-.3c-.2-.1-.2-.4-.3-.7v-2.2c-.2-.5-.1-1 0-1.5v-1.6c.2-.2.2-.4.2-.7v-.6l.1-.3c0-.5.1-.9.3-1.2l.1-.7c0-.4.2-.8.4-1.2l.1-.5.3-1 .2-.2.1-.5c0-.3.1-.4.2-.5l.2-.3c.5-1.2 1.2-2.4 2-3.6v-.2c.2-.2.3-.5.6-.6l.3-.2h.3a7.3 7.3 0 0 1 .7 0h.3l.3-.1H13.1c.4 0 .7-.2 1-.3l.4-.1.8-.4.8-.7.1-.1c1-1 1.3-2.2 1.4-3.4 0-.3.1-.6 0-.8V.2l-.3-.3h-.5a53.6 53.6 0 0 0-2.6.2H13.6v.1A9 9 0 0 0 9 2.7l-.5.5c-.6.6-1 1.3-1.6 2.2l-.8 2.1v.2l.2.2h.1a.6.6 0 0 0 .2 0h.4l.3-.4c.2-.8.6-1.6 1-2.3l.6-.8.4-.5c.2-.4.6-.6 1-.9l.2-.2L12 2c.4-.3.8-.4 1.2-.5l.9-.3h.5l.5-.1h.3v.1l-.1.1-.2.2a15.6 15.6 0 0 0-3.3 3.1l-.6.8A25.1 25.1 0 0 0 8 9.9l-.2.4-.2.3a4.4 4.4 0 0 0-.2.3 2 2 0 0 0-.2.7l-.1.2v.4l-.3.3c0 .1 0 .2-.2.3 0 .3 0 .5-.2.6l-.1.3v.3c0 .2 0 .4-.3.5l-.1.6-.5 2v.1c.1 0 .1 0 0 .1v.2l-.1.7-.1.5v.6c-.2.2-.2.4-.2.6v1.4c-.2.2-.2.4-.1.6v3.4a45.6 45.6 0 0 0-1-.4c-1.3-.6-2.2-1.2-3-1.8a.6.6 0 0 0-.4-.2H.2c-.2.1-.2.2-.2.5a2 2 0 0 1 0 .2l.2.2c0 .2.2.3.3.3l.3.2.2.1c.3 0 .4.2.4.3l.1.2 1.1.5c.5.3 1 .6 1.5.7.3 0 .6.2 1 .4l.3.4a17.6 17.6 0 0 0 .3 1.3c0 .6.2 1.1.4 1.6l.3 1.4.8 1.7 1 2a121 121 0 0 1 1.6 2.7l2 2.4 1.2 1.4.4.3.3.3.3.2.6.6.6.5.5.3a13.7 13.7 0 0 0 .9.7 21.8 21.8 0 0 0 4.7 2.5 6.8 6.8 0 0 0 .3 0l.2.1c0 .3.3.4.5.4h.3l.2.1 2.5.8V48h.2v.2h.2c.1.2.2.2.3.2H26.3l.4.1H27l.7.1.5.1h.3l.5.1h.2l.5.1h.4a27 27 0 0 0 2.4 0h2.9l.4-.2h.8l.4-.2h.5l.3-.1 2-.5a31 31 0 0 0 8-4c1.4-1 2.4-1.8 3.3-2.8l.7-.6.2-.2c.2-.4.6-.8 1-1.2l.5-.8a25.6 25.6 0 0 0 4-7.3c0-.1 0-.4.3-.4h1.9l1.3-.1h2.4c.2 0 .4 0 .5-.2l.1-.4c0-.2-.3-.4-.6-.4Zm-5-8.9H58.7v.4l-.1.1H58.2V21l.1-.4Zm-27.4-5H30.7v-.2h.2c.1 0 .2.1.1.2Zm.6-.1h-.1l-.1.1s-.2 0-.2-.2l.1-.2.2.1c.1.1.1.1 0 .2Zm1-.8-.3.1v-.1l.1-.2h.1v.2Zm4-1.3v.1h-.2V13h.1v.2ZM16.5.6H16.9c0 .1 0 .2.2.2V1l-.3.2h-.1V.7l-.1-.1V.6Zm-.6 3 .1-.1h.1v.2H16l-.1-.2Zm-.3 1h.6l.1.3V5h-.5c-.2 0-.2-.1-.2-.2v-.2ZM13.3.9l-.1.1H13v.1H13V.6h.2l.1.1Zm.7 0-.2.2-.3-.1V.8h.5V1Zm.5-.4v.1h-.1l-.3.2-.2-.2.3-.3h.1l.1.1h.1v.1Zm.4 5c.2 0 .3.1.3.3 0 .2-.1.2-.2.3l-.1-.1v-.4Zm-.7-2.4h.2v.2h-.2v-.1Zm-.5.9.2-.1h.3v.2h-.5V4Zm-.5 1.8h.4V6l.2.2.1.2c0 .1 0 .2-.2.2l-.2-.1v-.2l-.2-.3Zm-1-1h.5l.1.2v.1h-.5V4.7ZM9.8 8.1l.2-.1v.1l-.1.2h-.1V8Zm-1 .9H9v.2h-.4V9Zm-.4.7h.1l.1.1c0 .2 0 .3-.2.3l-.1-.2v-.2Zm-.9 2.5h.2v.2h-.2v-.2ZM4 25.8l-.2-.2.1-.1H4V25.8Zm.6.1-.2-.1.1-.2c.2 0 .2 0 .2.2v.1Zm1.2 1.4h-.2v-.1h.2Zm0-8.8h-.3V18h.2l.2.2-.1.2Zm50.5-6.4h.1l.1.2v.1h-.2V12Zm-.4-.4h.2v.1h-.2Zm-.6-.4.2-.1h.2c0 .3 0 .4-.2.4h-.1V11.3Zm-1.2-1V10h.5v.2l-.1.2c-.1.1-.2.3-.4.3-.1-.2 0-.3 0-.4Zm-.4-1.6.2.1V9h-.1l-.2.1h-.1c0-.2 0-.3.2-.4ZM52.4 8h.2v-.1h.1s.1 0 0 0V8l-.3.1v-.2Zm-.1 1.5.2-.2h.1V9.6l-.1.5h-.1v-.1h-.2v-.5Zm-.3-2h.1l.1.2v.1H52v-.2Zm-.5 2.7H51.9v.2l.2.1V10.7h-.1v-.1h-.4V10Zm-.8-3.3h.5l.1.1v.2H51l-.2-.2v-.1Zm.5 1.4-.1.1H50.8v-.4H51c.1 0 0 .2 0 .2v.1ZM49.8 11l.2-.1.1-.1h.1c.2 0 .2.1.2.3h-.2a1.3 1.3 0 0 0-.1 0h-.3v-.1Zm-.4-1.6.2-.1.1.1-.1.1h-.2v-.1Zm-1 .4h.4v.2H48.5v-.2Zm-.6-1.2v-.1l.1-.1c.3.2.3.3.1.5h-.2v-.3Zm0 2.2s-.1 0 0-.1v-.2h.1v.2l.2.1.1.1V11.2h-.4v-.2h-.1v-.1Zm-1.2.3h.1v.2l-.2-.1.1-.1Zm-1.2-.4v-.1c0-.2.1-.3.3-.4l.1.3v.2h-.4Zm-1 .3c0-.2.1-.3.2-.3H45v.6H44.5l-.2-.1v-.2Zm-2.8.7h.2l.2-.1c.1 0 .2 0 .3.2l-.2.2-.2.1c-.2 0-.2-.1-.2-.2l-.1-.2Zm-1 .2H41.3l-.1.2-.4-.1v-.1Zm-4 7 .1-.1H37l.1.1v.1a1 1 0 0 1-.5 0v-.1Zm.6 4.2.2.3-.3.1h-.4v-.1l.1-.2V23l.1-.2h.2l.1.2Zm1.5 1.7-.2.1h-.1v-.2c0-.2 0-.4.2-.6l.3.5v.1l-.2.1Zm0 2.1c-.2 0-.2 0-.2-.3h.1l.2.3Zm-.3.4.1.1h.1v.1l-.1.2.1.2V28.2h-.4v-.4H38v-.4h.4ZM37 30.5V30l.3.1v.2l-.1.2H37l-.1-.1Zm-.2-6.2c-.1 0-.3-.2-.1-.4h.2l.1.2-.2.2Zm.5 5.4h-.1v-.1l.1-.2v-.1H37.7l.3.1V29.7h-.6Zm.7-2.6c-.3 0-.4-.2-.4-.4h.2s.2 0 .2.3Zm-.4-5.3H37.3v-.2h.3v.1Zm-1.2 3.9h.3v.2h.1s.2.2 0 .3h-.1l-.1-.1V26h-.1l-.4-.1v-.2H36.5Zm-.4-3.4h.4v.2l-.2.2c-.2-.1-.3-.3-.2-.4Zm0 4.2h.2v-.1h.1c.1 0 .2 0 .2.2v.2h-.2v.1h-.4v-.4Zm.3 1.7v.2H36V28h.3v.1Zm-.4-.8v.1h-.1c-.4-.2-.5-.2-.5-.4l.2-.1c.1 0 .2 0 .3.2v.2Zm-.4 3.2h-.2v-.3l-.2-.2H34.8v-.2h.2l.3-.1h.4v.2l-.2.6Zm.1 1.9h-.2c-.1 0-.2 0-.2-.2-.1-.2 0-.2 0-.2H35.6c0 .1.2.2.1.4ZM33 30.7v.1h-.2v-.4c-.1 0-.2-.2 0-.3H33v.5H33v.1Zm1-7.9-.1.2s-.1.2-.3.2h-.1v-.4l.2-.1h.2v.1Zm0 4.4c.1.3 0 .5-.1.6h-.1v-.5h.2Zm-.5 2H33.8c0 .3-.1.4-.2.4h-.2v.2l-.3-.3.2-.1h.1l.1-.2Zm0-4.6h-.2c-.3 0-.2-.3-.2-.4h.2c.1.1.2.2.1.4Zm-.5 9.2h.2l-.1-.5v-.1l.4.1.4.2h.1v.1c-.2 0-.3.1-.5.3-.1.2-.2.2-.4.2H33v-.3Zm1-2.3-.1-.1.1-.3h.2v.3H34Zm.1-6 .1-.2h.2l.3.1v.2h-.2v.1h-.2l-.2-.3Zm1.2 2.5V28.3H35v-.1l.4-.2Zm0-4 .1-.2.1.2-.1.1-.2-.1Zm.5 2.2h-.4v-.1h.4v.1Zm-.5-8.7H35.6l-.1.3h-.1c-.1 0-.2-.1-.1-.3Zm0 1.4h.1l.2.1.2.2v.1l-.2.1s0 .2-.2.2h-.2c0 .1 0 .2-.2.2h-.2v-.4l.1-.1V19l.3-.1Zm-.7-1.3H35v.2h-.2c0-.1-.1-.1 0-.2Zm0 5.3h.1l.1.2v.1l-.1.1h-.2l-.3-.1V23l.4-.1Zm-.2-1 .1.1v.3H34.1v-.5h.2Zm-.2-1c0 .2 0 .5-.2.6h-.1V21l.2-.1h.1Zm-.5-3.1h.1c.2.2.2.4 0 .6h-.1c-.2-.2-.1-.5 0-.6Zm-.6.7h.1l.1-.1c.2 0 .2 0 .3.2l-.4.2H33c0-.2.1-.3.2-.3Zm-.3 9.3c0 .3 0 .5.2.6v.1h-.5v-.1l-.1-.2V28l.3-.3Zm-.3 7.7s-.1.2-.3.2c0 0-.2 0-.3-.2v-.2l.1-.1.2.1H32.5v.2Zm0-8.4v.5l-.3-.3v-.1h.2Zm-.2-2.6h.1v.1l-.1.1H32c0 .1 0 .2-.2.2l-.1-.1c.1-.3.2-.3.4-.3h.1Zm-.6-4.3h.2c.1 0 .1 0 0 .1h-.2Zm0 11 .2.2-.1.2-.4.3c-.2-.2-.2-.2-.1-.4h.2c0-.1 0-.2.2-.2Zm-.5-10.7H31.5v.1l-.1.1h-.2v-.1Zm-.3.7v-.3H31.3l.1.2V21.4c-.1 0 0 0 0 .1l-.1.3H31l-.2-.2v-.4Zm-.7 14v.1H29.8v-.6h.4v.2c-.1.1-.2.2-.1.4Zm0-2.4c-.1-.3-.1-.3 0-.4v-.7l.5-.1.1.1v.4l-.1.1v.2l-.2.2-.3.2Zm.5 0h.1c.2.2.2.2 0 .4h-.1v-.4Zm-.1-6.2H31V27.3h-.2V27l-.1-.2v-.2Zm-.1 1.5.1-.2h.2c0 .3-.2.3-.3.4V28Zm-.3 1.6v.1s0 .2-.2.2h-.1v-.4h.2Zm-.9 6.7v-.1h.1v-.1h.2v.5h-.1l-.1-.1-.1-.1v-.1Zm.2-.7h-.2c-.3 0-.2-.2-.2-.2v-.2h.2l.3.1c0 .1.1.2 0 .2v.1Zm-1.7.4c-.2 0-.2.1-.3.2l-.2.1-.3.2a12.1 12.1 0 0 1-1.5.7 2.8 2.8 0 0 1-.2 0h-.1l-.3-.1V37l-.1-.3-.1-.2v-.6a13 13 0 0 0 0-1.4h.1a5.7 5.7 0 0 1 0-.4v-.2a12.3 12.3 0 0 1 .3-.7l.6-1h.1a23 23 0 0 1 .6-.7v-.2h.1a1.8 1.8 0 0 1 .2 0l.2-.2.7-.5.5-.2.6-.2.3-.2c.3.3.5.5.5.8a.5.5 0 0 0 0 .1v.1l.1.3v1.3a2.7 2.7 0 0 1 0 .6l-.1.5v.2h-.1v.6H29l-.4.6-.7.8-.2.2Zm.6-8.7-.1.2H28a.4.4 0 0 1 0-.4l.1-.2h.1v.4Zm0-1.3h-.1l-.3-.3H28V25.5a.5.5 0 0 0 .2 0h.1c.2 0 .2.2.3.2V26h-.1Zm.4 3.1H29.1l.2.1v.4h-.1c-.2 0-.3-.1-.3-.2l-.1-.2Zm.8-3-.2.1h-.2V26l.3-.1h.4V26.3H29.5Zm.5-2v.1c-.4 0-.5 0-.5-.2h.4v.1Zm-.2-1v.1l-.2.2-.3-.3h.5Zm-.6-1.3h.2v.5h-.3c-.1-.2 0-.4.1-.5ZM29 24h.1V24.7h-.2c-.1-.2-.2-.3-.1-.5h.1Zm-.2-.7v.2h-.5s-.2-.1-.1-.3H28.6v.2l.2-.1Zm-.8-1.7.7.2v.4h-.4l-.1-.1H28L28 22c0-.1-.1-.2 0-.4Zm-.3 2.3.2-.1H28.3l.1.2V24.4a.6.6 0 0 0-.5 0V24l-.1-.1v-.1Zm-.9-.9h.5v.3l-.2-.1h-.2V23c-.1 0 0 0 0 0Zm-3.6 3.2.1-.2h.1a1.8 1.8 0 0 1 1.8 0l.1-.3.1-.5-.1-.8v-.1a1.4 1.4 0 0 1 .1 0l.3-.3.3-.2.4.2h.2a1.8 1.8 0 0 1 .2 0c.2.1.1.3 0 .3v.2c.2.1.2.3.1.4l.1.4v.1c-.1.1 0 .3 0 .4v.3l-.3.5v.1c.4.3.6.8.8 1.2v.2c.1.1.2.3.1.5v.4c-.1.2-.1.4-.3.5l-.1.2-.7.6h-.1a2 2 0 0 1-.8.4H25c-.4.2-.7.2-1 .2-.5 0-.9-.2-1.1-.6l-.4-1a9.1 9.1 0 0 0-.1-.6c-.1 0 0-.1 0-.2l-.1-.2c0-1 .2-1.7.9-2.1Zm-1-.5.2-.1h.1v.2H22.2Zm-.5 1.5h.1l.2.1v.2H21.6V27.1Zm.3.9v.3l-.1.1c-.3-.2-.3-.3 0-.5Zm-.3 3c.6 0 1.1.3 1.5.7l.3.5c.2.3.3.5.3.8v1.1c-.3.5-.6 1-1.2 1.4l-.2.1h-.1l-.6.1H21.4c-1.2 0-2.2-.9-2.4-2v-.3a2.4 2.4 0 0 1 2.5-2.4h.2Zm-2.3-.1v-.1l.3-.1.2.1v.2h-.5V31Zm1.9-2.1.1.2-.1.2-.2.3H21c0-.4 0-.6.3-.7Zm-1 1.6h.1l.1.2v.1H20l-.1-.2.1-.1h.2Zm-.3-.8.1-.1h.1l.1.2v.1h-.4v-.2Zm-.4-4.2h.1l.2-.1v.2H19.6Zm0 .6h.2v.2l-.1.1v.1h-.2v-.2l.1-.2Zm-.6 3.1h.5c.1 0 .2.1.2.3v.2l-.1.1h-.7v-.1l.1-.5Zm-.2 1.5v-.1l.2-.1h.2v.1l.1.3v.2l-.1.1v.2H18.8l-.2-.3v-.4Zm-.4-3.8v-.3l.1-.2h.1v.8l-.1.1-.1-.4Zm-.2 4.7h.4v.1l.1.1v.1H18.4l-.3-.1v-.2Zm-.1 3.3-.1.1-.2-.1v-.2h.2c.2 0 .1.2.1.2Zm-.3-1.5h.1l.1.2v.1H17.6v-.1l.1-.2Zm-.7-6.8h.2l.3.1v.1H17v-.2Zm.4 1.5v.1h-.2V28h.1Zm-.5.7.2-.1h.2s.2 0 .3.2l-.1.1h-.2L17 29v-.1Zm0 2.2H17.4v.2h-.4v.1h.1v.1l-.1.1h-.1V30.8H17.2Zm-.3 3.2V34h.1l.3.1v.3l-.3.2h-.1v-.4Zm0-2.2.1-.2a3.8 3.8 0 0 1 .1 0h.2v.1c0 .2 0 .2-.2.2h-.2V32Zm-.2-5.8h.4V26.6c-.1 0-.1.2-.3.2-.2-.1-.2-.2-.1-.3v-.1Zm-.7 2.2h.2v.1l.1.1v.1l-.2.1h-.1v-.4Zm-.2 2.3.3-.1h.2v.1c-.1.1-.2.2-.1.3l.2.2v.1H16l-.4-.1v-.5Zm-.5-2.3h.2c.1.1.1.2 0 .4l-.2-.3Zm-.7-.5c.2 0 .4 0 .4.2v.2l-.3.1h-.1v-.5Zm-.6.2c0-.1 0-.2.2-.2l.1.2-.2.1h-.1V28Zm-5.4 6.6v.1h-.1v-.1h.1Zm.2.6h-.1V35l.2.1-.1.2Zm2.1 3.1v-.5c.2.2.2.3 0 .5Zm1.8 2-.1-.2h.1v.2Zm1.1 1.2h-.1v-.1h.1Zm2 1.5h-.1l-.2-.1v-.2h.2l.1.1v.2Zm2.3 1.7h-.2v-.1h.1Zm2 1h-.2v-.2h.2v.2Zm.4.2v.1H20l-.2-.1v-.2H20.3v.1l.1.1Zm4 1.2h-.1V47h.1v.1Zm2.2 1H26.1V48l.2-.1.1.1v.1Zm.8 0v.1H27V48h.1l.1.1Zm4.6.5h-.1c-.1 0-.1-.2 0-.2v-.1a.6.6 0 0 1 .1 0h.1v.3Zm.5-1.8h-.2v-.2h.2v.2Zm2.6 1.5-.1.1-.1-.2v-.1h.2v.2Zm.4.3v.1h-.1v-.2h.1v.1Zm.7-.3h-.2v-.1l.1-.1.1.1Zm2.1-.3H38V48H38.3v.1Zm6.2-4.4h-.1c-.1 0-.2-.1-.2-.3 0 0 0-.2.2-.2.3 0 .3.2.4.3v.4l-.1.1c-.2 0-.2-.1-.2-.2v-.1Zm.5 1.2H44.6l-.1-.2v-.2c0-.2 0-.3.2-.3l.1.1v.2c.1 0 .2.2 0 .4Zm.3-2.8-.3.3c.1.2.2.4 0 .6l-.4-.1-.1-.1V42.5l.2-.1h.1l-.1-.1h-.1v-.4l.6.1v.1Zm.7-1.2h-.2l-.4-.1v-.4l.2.1.2.1.2.2v.1Zm.9 2.6H46.2v-.2c.2 0 .3-.1.3-.2h.3v.3Zm0-3.5h.1c.2.2.2.3 0 .5l-.1.3-.2.1-.1.1h-.1l-.1-.2v-.2l-.3-.1v-.1l.5-.3v-.2l.1-.5h.4l-.1.3v.1c-.1 0-.1.1 0 .2Zm-.2-1.8h.1c.2 0 .2.1.2.2v.1h-.1c-.2 0-.2-.2-.3-.3Zm.8-.2v.1h-.1L47 38v-.2h.2l.1.2Zm.2-.8v.1H47.2V37h.1v-.1h.1v.3Zm.5 1.5-.3.2h-.2v-.4h.1v-.2h.4v.4Zm.4 2.8h-.1c-.2-.1-.2-.2 0-.4.3.1.2.3.1.4Zm.6-4h.1l-.1.2H48.8l-.2-.1V37l.1-.1h.1v.1c0 .2.1.3.3.3Zm.1-.8h.1v.1l.2.2v.1l-.2.2c-.2 0-.3-.1-.3-.3 0 0 0-.2.2-.3Zm-.4-.4H48.5v-.1H48.8Zm.8 4.8c-.2 0-.3-.1-.3-.2v-.2H49.7v.4Zm0-1h-.2L49 40h-.1l-.2-.1v-.2h.2l.1.1H49.4l.1.1h.2V40.2Zm.8-4.7v-.1c0-.3.2-.4.4-.5h.5v.2c0 .2-.2.3-.4.3h-.5Zm.7-2.6h.1l.4.3v.1l-.3.2c-.2-.1-.2-.3-.2-.4v-.2Zm0 5.7c0 .3-.1.3-.5.3h-.1v-.4h.4a.5.5 0 0 0 .1 0l.1.1Zm.1-1.4h-.4s-.1-.1 0-.1l.1-.3.3.1V37.2Zm0-.7c-.2 0-.3-.2-.2-.3V36h.6v.4h-.1l-.1-.1h-.1l-.1.1Zm.3 2.6c-.2-.2-.1-.4 0-.5h.1v.5Zm0-4.4c-.2-.1-.1-.2-.1-.3v-.1H51.7c0 .1 0 .3-.2.4Zm.5-1.3h-.1c-.2-.3-.2-.3 0-.6h.2l.1.2.1.2-.2.1v.1H52Zm.2 2.3-.1-.2h.6v.3h-.5Zm.6 2h-.5v-.2h.2l.1-.1h.1l.2.1-.1.3Zm0-5.2H52.4s-.1-.1 0-.2l.1-.2h.1l.3.1v.1c0 .2-.2.2-.3.2Zm.2.9V33H53.4s.2 0 .2.2v.1H53Zm.7 2.7h-.2l-.1-.1-.1-.1v-.3h.2l.1.2.1.1v.2Zm.1-1.5-.2.2H53.3l-.1-.2v-.2c0-.1 0-.2.2-.3l.1.3h.2v.1h.1v.1Zm0-2v.1l-.2-.1-.1-.1v-.1h.4v.3Zm.5-1.2a12.4 12.4 0 0 1-.3.1 37.6 37.6 0 0 1-1.6.6l-1.2.6-1 .6-.4.2-.4.3-.4.3a9 9 0 0 0-2 1.8c-.8 1-1.5 1.9-2.1 3-.6.8-1 1.8-1.4 2.7l-.7 1.8a31.8 31.8 0 0 1-.6 1.8v.2c0 .4-.1.7-.6.8-1 .4-2 .8-3.1 1h-.2l-.3.1-.2.1-.2.2-.2-.1h-.1l-.4.1h-.5c-.6.2-1.3.3-2 .3h-.2l-.7.2a6.4 6.4 0 0 1-.4 0 2 2 0 0 0-.3 0v-.1c0-.7 0-1.3.3-2l.1-.6.3-.6.2-.6c0-.1 0-.3.2-.4l.2-.6.9-1.4.8-1.3a24.6 24.6 0 0 1 5.7-5.2l.3-.1a23 23 0 0 1 2-1.2l.9-.4.4-.2c.3 0 .6-.2.7-.4H46.1l.7-.2.6-.3c.3 0 .5 0 .7-.2l.7-.2.7-.1 1-.2h.2c.5-.3 1-.3 1.5-.4a22.4 22.4 0 0 0 .8-.1l.7-.1h.6v.1Zm-21.5 13H33.1v.2H32.8v-.1Zm1.5-2.8h.5v.2h-.2l-.3.2c-.1-.1-.1-.3 0-.4Zm.8-1.3V40h.4v.2h-.2l-.2-.1Zm1.5-2H36.9l.2.2v.2h-.5v-.3Zm1.6-1.4v-.1H38.6v.2h-.2v-.1Zm6-3.9h.6v.2l-.4.2h-.1c-.1-.1 0-.2 0-.4Zm4.9-1.5H49.4c0 .2 0 .3-.2.3l-.1-.1v-.2Zm5.6-1h-.2V30h.4v.4h-.2Zm.7 1.5-.2.2H55c-.1 0-.2-.1-.2-.3h.5Zm2.2-5.9-.4 1.7-.2 1.2-.1.2v.3l-.2.2-.3.2h-1.1a4.7 4.7 0 0 1-1.1 0l-.3.2h-.7c-.2 0-.3 0-.3.2H52l-.6.2-.4.1h-.7v.1a2 2 0 0 1-.5.1h-.3l-.9.3-1 .3-1.6.5-1.3.5-1 .5c-.4 0-.7.2-1 .5l-.9.5-.5.2-1.6 1.1-.6.4A21.1 21.1 0 0 0 33 43a14.3 14.3 0 0 0-1.3 4.2v.3c0 .3-.1.4-.5.4a2.6 2.6 0 0 0-.4 0h-.3l-.7-.1H28.6l-.6-.2-.8-.1-.4-.1-.7-.2-.8-.1-1.5-.5-.7-.2a16 16 0 0 1-2.1-.9l-.6-.3-.8-.4a8.4 8.4 0 0 1-1.4-.7l-.8-.5-.5-.4-.7-.5a8 8 0 0 0-.5-.4l-.8-.7-.7-.6-.6-.6-.6-.6-2-2.4c-.8-1.2-1.8-2.6-2.5-4.1V33c0-.2-.1-.3-.3-.3l-.1-.2c-.1 0-.2-.2 0-.4v-.1c-.3-.4-.5-.9-.6-1.4a19.2 19.2 0 0 0-.6-2l-.2-.5c0-.4-.2-.8-.1-1.2H7.2l.5.2a1.5 1.5 0 0 0 .5 0l.5.1.4.1h.5l.7.1h2v.1l.3.5a9.1 9.1 0 0 1 .4 1.3l.2.4.2.5v.1c.1.3.2.6.5.7 0 .3.2.5.3.8a.6.6 0 0 0 .1.2l.2.2a26.9 26.9 0 0 0 1.4 1.7v.1l1 .9.1-.2h.1l.1.2h.1v.1l-.2.1a32.6 32.6 0 0 0 1.7 1.2 16.5 16.5 0 0 0 4 1.7l.7.1h.6c.3 0 .6 0 .8.2l1 .1h.2a21.3 21.3 0 0 1 1.5-.2h.3l.5-.1h.2l.9-.3 1.2-.4h.1l.3-.1.2-.1a32.5 32.5 0 0 0 3.4-2.1l.4-.3.3-.3c1.3-1.3 2.4-2.8 3.1-4.5l.6-1.8V28a15 15 0 0 0-.1-7 14 14 0 0 0-1.3-3c-.3-.5-.5-.9-.9-1.2v-.1l.7-.5 1.5-1 1.4-.8 2.3-1.5.6-.4.3-.2.3-.3h.7l.5-.2h.7l.9-.1h.3l1.1-.2h.6a12.8 12.8 0 0 0 .7 0h.3a29.7 29.7 0 0 1 2.3 0l.5.1 2 .3h.3l.4.1c.4 0 .7.3.7.6l.2.6.2.5.2.4c0 .2 0 .3.2.5v.5c.1.1.2.3.1.4.3.4.3.7.4 1v.6c.2.4.2.9.3 1.3l.1.7v.7l.1.8c.2.6.2 1.2.2 1.8v.8l-.1.7c0 .2-.1.5 0 .8v.8l-.2.2V26Zm.2 2v-.2c-.1 0 0-.1 0-.1h.1v.2Zm1.2 2.2h-.4V30c.2 0 .3 0 .3.2v.1Zm.7 0h-.4V30l.2-.1h.2v.1Z" fill="#CEA82B" mask="url(#b)"/></g><path d="M19.7 14.6h-.1c-.3.6-.6 1.4-.6 2.2 0 1 .1 1.9.5 2.9.2.5.3 1 .6 1.3.3 0 .5-.3.7-.5L22 19c.5-.8.8-1.6 1-2.7.1-1.2-.1-2.4-.8-3.5l-.2-.6-.1-.3h-.4c-.1.2-.3.2-.4.3l-.5.5-.4.6a3 3 0 0 0-.5 1v-.1h.1s.1.2 0 .2m1.6 3.7-.1.1H21V18l.1-.1h.1c0 .1.2.2.1.3M21 18h-.2v-.3l.1-.1h.1c.1.2.1.3 0 .4m.8-2.8.1-.2.3-.1h.1v.2a1 1 0 0 1 0 .3v.1l.1.2v.2l.1.3v.1c-.3 0-.4-.3-.4-.4v-.2h-.2l-.1-.4v-.1m-.2 1.6v.1c0 .2.2.3.3.4h.1c.2.2.2.3.1.5v.1h-.2v-.3c-.2 0-.3-.1-.3-.2l-.2-.2h-.1c0-.2 0-.4.3-.4m-.5-.6h.2v.2l-.1.1H21v-.2h.1m-.4-1.7h.3v.1l.1.2H21l-.1.1-.1.1h-.1c-.2-.2-.2-.3 0-.5m-.1 4.5.3-.1h.3v.1l-.2.1-.1.1-.2.1-.2-.1V19M14.4 22.6c.5.4.9.4 1.3.4H16.3c.2 0 .5-.1.7-.4.6-.4 1.3-1.6.9-3-.4-1-1.1-1.6-2.1-1.6l-.8.1h-.2l-.2.1-.3.3c-.2 0-.3.2-.3.3l-.3.2c-.1 0-.2 0-.3-.2l-.5-.3h-.3a.8.8 0 0 0-.3-.2H12v.6c-.1.3-.1.4 0 .4l.5.4.8.4a3.7 3.7 0 0 0 .2 1.4v.1l.2.2c.1.3.3.6.6.8m2-2.5h.2v.4h-.2l-.1-.4m-.7 1.7c.3-.2.3-.3.3-.5l.2-.1c.1 0 .2 0 .3.2l.1.2.1.2-.2.3-.3.3-.1-.1h-.1V22h-.1l-.2-.2m-1.2-1.2h.1a.9.9 0 0 1 .1 0h.1v.1l.2.2.3.4.3.3v.1l-.5.1-.2.1-.3-.1v-.1l.2-.2.1-.2v-.1c-.2 0-.2-.1-.2-.2l-.1-.1-.2-.2v-.1m-.5-1-.2.1h-.1l-.2-.1h-.1v-.2h.4l.2-.1.1-.1c0 .2.2.4.4.5l-.1.1H14l-.3-.2M17.4 9c-1.7.3-2.6 1.4-2.4 3 .2 1.3 1.1 2 2.5 2s2.3-.8 2.5-2c0-.8 0-1.5-.5-2A2.3 2.3 0 0 0 18 9h-.5m-.4 3.4-.1.2h-.1c-.2 0-.1-.2-.1-.3v-.1h.3c.1.1 0 .2 0 .2m1.4-1.5c.1-.2.2-.2.3-.2h.4c0 .2.1.2.2.2v.2l-.2.1-.2.1-.3-.1-.1-.2v-.1m-.8-.7h.1l.3.3v.1c.2.6.2 1-.3 1.1l-.3.1h-.3l-.6-.5v-.4l.2-.3c.2-.3.3-.4.6-.4a.6.6 0 0 0 .3 0" fill="#CEA82B"/><g fill="#141414" fill-rule="nonzero"><path d="M72.2 17.4 76.5 30h2.8l4.3-12.6h-2.4L78 27.2l-3.3-9.8zM86.7 17.4V30H89V17.4zM93 30h2.2v-8l5.2 8h2V17.4H100v8.1l-5-8h-2zM105.9 23.8c0 4 2 6.4 5.6 6.4 3.7 0 5.5-2.5 5.5-6.4 0-4.2-1.8-6.6-5.5-6.6-3.6 0-5.6 2.4-5.6 6.6Zm5.6 4.2c-2.3 0-3.3-2-3.3-4.2 0-2.5 1-4.4 3.3-4.4 2.4 0 3.2 1.9 3.2 4.4 0 2.2-.8 4.2-3.2 4.2ZM119.2 17.4l4.3 12.6h3l4.2-12.6h-2.5l-3.3 9.8-3.2-9.8zM131.5 30h2.5l.8-2.5h4.9l.8 2.5h2.5l-4.3-12.6h-2.9L131.5 30Zm4-4.5 1.7-5.3 1.8 5.3h-3.5ZM146 17.4V30h2.4v-4.6h1.9l2.6 4.6h2.5l-2.7-4.8c1.4-.5 2.4-1.7 2.4-3.8 0-2.5-1.8-4-4.2-4H146Zm4.9 2.1c1.4 0 2 .7 2 2s-.6 1.8-2 1.8h-2.5v-3.8h2.5ZM158.9 30h4.3c3.2 0 5.5-2.4 5.5-6.3 0-3.7-2.6-6.3-5.5-6.3H159V30Zm2.3-2.2v-8.3h1.7c2 0 3.5 1.4 3.5 4.2 0 3-1.6 4.1-3.5 4.1h-1.7ZM171.4 30h2.4l.9-2.5h4.8l.9 2.5h2.4l-4.3-12.6h-2.8L171.4 30Zm4-4.5 1.7-5.3 1.8 5.3h-3.6ZM190.4 23.2v2h3.9c-.3 1.7-1.2 2.8-3.1 2.8-2.2 0-3.3-2-3.3-4.2 0-2.5 1-4.4 3.3-4.4 1.3 0 2.2.6 2.7 1.6h2.5c-.7-2.5-2.4-3.8-5.2-3.8-3.6 0-5.6 2.4-5.6 6.6 0 4 2 6.4 5.6 6.4 4.2 0 5.7-3 5.6-7h-6.4Z"/></g></g></svg>